<svg width="153" height="94" viewBox="0 0 153 94" fill="none" xmlns="http://www.w3.org/2000/svg">
<g clip-path="url(#clip0_220_131)">
<path d="M0.790344 69.7814H3.72675V57.4341L9.04176 65.5339H9.13884L14.5022 57.3845V69.7814H17.4869V52.4951H14.308L9.13884 60.6688L3.96961 52.4951H0.790344V69.7814ZM63.5585 59.2345C64.7938 59.2345 65.7954 60.2536 65.7954 61.5106C65.7954 62.7682 64.7938 63.7872 63.5585 63.7872C62.3227 63.7872 61.3213 62.7682 61.3213 61.5106C61.3213 60.2536 62.3227 59.2345 63.5585 59.2345ZM108.393 64.3238H110.019L110.917 53.3594V52.4951H107.471V53.3594L108.393 64.3238ZM107.592 69.7814H110.82V66.3983H107.592V69.7814ZM87.1098 69.7814H90.1683L91.915 65.6079H99.9483L101.671 69.7814H104.826L97.3517 52.3715H94.5847L87.1098 69.7814ZM93.0076 62.9161L95.9191 56.0016L98.8558 62.9161H93.0076ZM70.3932 69.7814H73.3783V64.7683L76.0237 62.0025L81.8234 69.7814H85.4395L78.0619 59.928L85.1237 52.4951H81.4597L73.3783 61.1874V52.4951H70.3932V69.7814ZM42.4335 69.7814H45.2484L53.8154 57.187V69.7814H56.7518V52.4951H53.9607L45.3698 65.1141V52.4951H42.4335V69.7814ZM29.9357 70.0776C35.1533 70.0776 38.8422 66.0029 38.8422 61.1381C38.8422 56.2239 35.202 52.1983 29.9845 52.1983C24.7665 52.1983 21.0777 56.273 21.0777 61.1381C21.0777 66.0525 24.7183 70.0776 29.9357 70.0776ZM29.9845 67.287C26.6112 67.287 24.2088 64.4964 24.2088 61.1381C24.2088 57.7304 26.5625 54.9889 29.9357 54.9889C33.3092 54.9889 35.7116 57.7794 35.7116 61.1381C35.7116 64.546 33.3574 67.287 29.9845 67.287Z" fill="#1A4C75"/>
<path d="M119.468 69.7814H125.924C132.039 69.7814 135.606 66.0772 135.606 61.0886C135.606 56.0507 132.087 52.4951 126.02 52.4951H119.468V69.7814ZM124.176 65.5339V56.6929H126.093C128.908 56.6929 130.777 58.3475 130.777 61.1133C130.777 63.9535 128.908 65.5339 126.093 65.5339H124.176ZM145.632 70.0776C149.758 70.0776 152.501 67.9787 152.501 64.4474C152.501 61.1629 150.074 59.8788 146.166 59.0145C143.812 58.4711 143.23 58.1253 143.23 57.3348C143.23 56.6684 143.788 56.1742 144.929 56.1742C146.433 56.1742 148.132 56.7672 149.685 57.8782L152.039 54.4952C150.195 52.9887 147.937 52.1983 145.05 52.1983C140.973 52.1983 138.473 54.5199 138.473 57.7304C138.473 61.3357 141.265 62.3727 144.88 63.2123C147.186 63.7556 147.743 64.151 147.743 64.8671C147.743 65.6575 147.064 66.1017 145.803 66.1017C143.837 66.1017 141.968 65.3856 140.294 64.0275L137.673 67.213C139.76 69.1145 142.623 70.0776 145.632 70.0776Z" fill="#00A0E3"/>
<path fill-rule="evenodd" clip-rule="evenodd" d="M9.02458 93.295H144.086C148.586 93.295 152.267 89.5495 152.267 84.9714C152.267 80.3924 148.586 76.647 144.086 76.647H9.02458C4.52508 76.647 0.844421 80.3924 0.844421 84.9714C0.844421 89.5495 4.52508 93.295 9.02458 93.295Z" fill="#1A4C75"/>
<path d="M12.7122 88.7522C14.0157 88.7522 14.8368 88.2822 15.5861 87.5089L15.0525 86.9346C14.3647 87.6029 13.7181 87.99 12.7327 87.99C11.1519 87.99 9.95098 86.6629 9.95098 84.9711C9.95098 83.2686 11.1417 81.9526 12.7327 81.9526C13.7077 81.9526 14.3853 82.3704 14.9907 82.9553L15.5245 82.3704C14.8061 81.681 14.0465 81.1902 12.743 81.1902C10.6285 81.1902 9.10944 82.9031 9.10944 84.9711C9.10944 87.091 10.6387 88.7522 12.7122 88.7522ZM16.7795 88.6266H17.6109L18.4627 86.6945H22.3735L23.2152 88.6266H24.0876L20.8133 81.2633H20.0537L16.7795 88.6266ZM18.7809 85.9527L20.4232 82.2242L22.0553 85.9527H18.7809ZM25.8968 88.6266H26.687V82.7151L29.3045 86.621H29.3455L31.963 82.7046V88.6266H32.7739V81.3155H31.9527L29.3353 85.3054L26.7178 81.3155H25.8968V88.6266ZM38.5347 88.7522C40.721 88.7522 42.2092 86.9867 42.2092 84.9711C42.2092 82.9345 40.7415 81.1902 38.5552 81.1902C36.3689 81.1902 34.8807 82.9553 34.8807 84.9711C34.8807 87.0081 36.3484 88.7522 38.5347 88.7522ZM38.5552 87.99C36.9129 87.99 35.7222 86.6321 35.7222 84.9711C35.7222 83.2896 36.8924 81.9526 38.5347 81.9526C40.177 81.9526 41.3675 83.3105 41.3675 84.9711C41.3675 86.6526 40.1975 87.99 38.5552 87.99ZM47.652 88.7522C49.8383 88.7522 51.3266 86.9867 51.3266 84.9711C51.3266 82.9345 49.8589 81.1902 47.6725 81.1902C45.4862 81.1902 43.998 82.9553 43.998 84.9711C43.998 87.0081 45.4657 88.7522 47.652 88.7522ZM47.6725 87.99C46.0302 87.99 44.8395 86.6321 44.8395 84.9711C44.8395 83.2896 46.0097 81.9526 47.652 81.9526C49.2943 81.9526 50.4849 83.3105 50.4849 84.9711C50.4849 86.6526 49.3148 87.99 47.6725 87.99ZM53.4335 88.6266H56.4511C58.0524 88.6266 59.0994 87.8746 59.0994 86.4441C59.0994 84.9711 57.8984 84.3132 56.369 84.3132H54.2444V82.0675H58.5861V81.3155H53.4335V88.6266ZM54.2444 87.8746V85.0443H56.3485C57.5391 85.0443 58.2885 85.4827 58.2885 86.4022C58.2885 87.4567 57.5494 87.8746 56.3895 87.8746H54.2444ZM64.3778 88.7522C65.6814 88.7522 66.5025 88.2822 67.2518 87.5089L66.7181 86.9346C66.0304 87.6029 65.3837 87.99 64.3983 87.99C62.8175 87.99 61.6166 86.6629 61.6166 84.9711C61.6166 83.2686 62.8073 81.9526 64.3983 81.9526C65.3734 81.9526 66.0509 82.3704 66.6565 82.9553L67.1902 82.3704C66.4717 81.681 65.7122 81.1902 64.4086 81.1902C62.2942 81.1902 60.7751 82.9031 60.7751 84.9711C60.7751 87.091 62.3043 88.7522 64.3778 88.7522ZM68.9275 88.7104C70.0361 88.7104 71.0625 87.99 71.0625 82.8613V82.0675H74.1213V88.6266H74.9322V81.3155H70.2824V82.6421C70.2824 87.6242 69.3484 87.9686 68.794 87.9686C68.5683 87.9686 68.2706 87.9165 68.1577 87.8644L67.9935 88.5326C68.1782 88.6061 68.6093 88.7104 68.9275 88.7104ZM78.4144 88.7522C79.2663 88.7522 80.0258 88.2925 80.6108 87.091L83.4541 81.3155H82.5713L80.2823 86.0886L77.6341 81.3155H76.7105L79.8718 86.9141C79.4509 87.7285 78.9276 88.0105 78.4349 88.0105C78.055 88.0105 77.8087 87.9481 77.5213 87.7909L77.2031 88.4489C77.5828 88.648 77.9422 88.7522 78.4144 88.7522ZM84.4626 88.6266H85.468L87.9731 85.0652L89.3999 86.6629V88.6266H90.2103V86.6629L91.627 85.0652L94.1421 88.6266H95.1473L92.1913 84.4489L94.9626 81.3155H93.9574L90.2103 85.6289V81.3155H89.3999V85.6289L85.6528 81.3155H84.6476L87.4188 84.4489L84.4626 88.6266ZM96.8025 88.6266H97.5928L101.873 82.5584V88.6266H102.674V81.3155H101.904L97.6137 87.3841V81.3155H96.8025V88.6266ZM105.099 88.6266H108.292C109.862 88.6266 110.898 87.8857 110.898 86.6321C110.898 85.6084 110.21 85.107 109.359 84.8458C109.923 84.5951 110.498 84.1043 110.498 83.1538C110.498 82.6629 110.334 82.2764 110.036 81.9631C109.636 81.5452 108.979 81.3155 108.158 81.3155H105.099V88.6266ZM105.9 87.8857V85.3054H108.168C109.42 85.3054 110.077 85.7647 110.077 86.5586C110.077 87.3944 109.4 87.8857 108.312 87.8857H105.9ZM105.9 84.5743V82.0571H108.086C109.112 82.0571 109.677 82.527 109.677 83.2478C109.677 84.1251 108.999 84.5743 108.024 84.5743H105.9ZM112.286 88.6266H113.118L113.97 86.6945H117.881L118.722 88.6266H119.595L116.321 81.2633H115.561L112.286 88.6266ZM114.288 85.9527L115.93 82.2242L117.563 85.9527H114.288ZM121.404 88.6266H122.215V85.3368H126.362V88.6266H127.172V81.3155H126.362V84.5638H122.215V81.3155H121.404V88.6266ZM129.598 88.6266H130.388L134.668 82.5584V88.6266H135.468V81.3155H134.698L130.408 87.3841V81.3155H129.598V88.6266ZM137.308 88.6266H138.293L140.429 85.828H142.492V88.6266H143.303V81.3155H140.233C139.31 81.3155 138.582 81.608 138.14 82.0571C137.78 82.4123 137.596 82.9553 137.596 83.5192C137.596 84.7413 138.407 85.4827 139.557 85.6921L137.308 88.6266ZM140.285 85.1278C139.187 85.1278 138.407 84.5325 138.407 83.5821C138.407 82.6524 139.105 82.0571 140.285 82.0571H142.492V85.1278H140.285Z" fill="#FEFEFE"/>
<path d="M51.52 36.0106C55.8135 29.3729 55.7222 21.7709 59.0377 14.6031C63.3243 5.33585 72.6829 -0.883439 82.928 0.611405C88.204 1.38089 93.1453 4.16694 96.779 8.62253C97.6146 9.64764 98.1831 10.4715 98.8314 11.6242C101.657 16.6475 102.488 22.3317 101.347 27.6288C99.038 38.3406 89.4947 45.1053 79.0422 45.5309C71.6874 45.8306 64.8449 43.4963 57.686 45.1746C55.1264 45.774 51.7994 46.4914 50.0212 43.825C48.0662 40.8931 49.9329 38.4649 51.52 36.0106ZM54.7689 38.1836C54.2589 38.972 53.4779 40.0315 53.2218 40.867C53.0507 41.4256 53.4057 41.8448 53.9663 41.8442C54.8429 41.8429 55.9357 41.5151 56.8166 41.3099C64.8188 39.4341 71.1485 41.9352 78.9822 41.5336C87.6556 41.0888 95.5991 35.769 97.5331 26.7908C98.472 22.4352 97.7817 17.7492 95.4454 13.5952C94.9399 12.6961 94.4402 11.9514 93.7894 11.1524C90.7863 7.47118 86.7167 5.17092 82.3788 4.53816C73.6582 3.26617 65.9742 8.74105 62.4492 16.6111C59.1387 24.0017 59.4171 30.9974 54.7689 38.1836Z" fill="#00A0E3"/>
</g>
<defs>
<clipPath id="clip0_220_131">
<rect width="152" height="94" fill="white" transform="translate(0.5)"/>
</clipPath>
</defs>
</svg>
