<svg width="31" height="40" viewBox="0 0 31 40" fill="none" xmlns="http://www.w3.org/2000/svg" >
<circle opacity="0.5" cx="15.5542" cy="38.1589" r="1.5" fill="#00A0E3"/>
    <path d="M30.0985 16.1309C30.0985 7.48268 22.9823 0.512117 14.3776 0.91381C6.56366 1.26825 0.284585 7.83711 0.0985382 15.8001C-0.0642524 23.2196 5.00552 29.4813 11.8195 31.0172C12.6334 31.2062 13.3311 31.7497 13.7032 32.5294L14.8427 34.9632C14.9823 35.2704 15.4009 35.2468 15.5404 34.9632L16.5404 32.6003C16.8892 31.7733 17.6102 31.2062 18.4706 30.9936C25.1218 29.434 30.0985 23.385 30.0985 16.1309Z" fill="#00A0E3"/>
    <path d="M7.59111 19.6131C8.93426 17.5939 8.9057 15.2814 9.94293 13.1009C11.2839 10.2818 14.2116 8.38993 17.4167 8.84466C19.0672 9.07874 20.6131 9.92625 21.7498 11.2816C22.0112 11.5935 22.1891 11.8441 22.3919 12.1947C23.2759 13.7228 23.5358 15.4519 23.1787 17.0633C22.4565 20.3218 19.471 22.3796 16.2011 22.5091C13.9002 22.6003 11.7596 21.8902 9.52006 22.4007C8.71933 22.5831 7.67851 22.8013 7.12221 21.9902C6.51064 21.0983 7.0946 20.3596 7.59111 19.6131ZM8.60747 20.2741C8.44792 20.5139 8.2036 20.8362 8.1235 21.0904C8.06996 21.2603 8.18103 21.3878 8.35639 21.3876C8.63064 21.3872 8.97251 21.2875 9.24807 21.2251C11.7515 20.6545 13.7316 21.4153 16.1823 21.2932C18.8957 21.1578 21.3807 19.5395 21.9857 16.8084C22.2795 15.4834 22.0635 14.0579 21.3326 12.7943C21.1745 12.5208 21.0182 12.2943 20.8146 12.0512C19.8751 10.9314 18.602 10.2317 17.2449 10.0392C14.5168 9.65224 12.1129 11.3177 11.0102 13.7117C9.97453 15.96 10.0616 18.0881 8.60747 20.2741Z" fill="white"/>

</svg>
