<svg width="51" height="67" viewBox="0 0 51 67" fill="none" xmlns="http://www.w3.org/2000/svg">
<circle opacity="0.5" cx="25.36" cy="63.6307" r="2.53172" fill="black"/>
<path d="M50.6804 26.6138C50.6804 12.0172 38.6695 0.252233 24.1464 0.930217C10.9579 1.52844 0.359996 12.6155 0.0459842 26.0555C-0.228776 38.5783 8.32805 49.1468 19.8287 51.7391C21.2025 52.0582 22.3801 52.9754 23.0081 54.2915L24.9314 58.3993C25.1669 58.9178 25.8735 58.8779 26.109 58.3993L27.7968 54.4112C28.3856 53.0153 29.6024 52.0582 31.0547 51.6992C42.2806 49.0671 50.6804 38.8574 50.6804 26.6138Z" fill="black"/>
<path d="M12.6921 32.4911C14.9591 29.0831 14.9109 25.18 16.6615 21.4998C18.9249 16.7417 23.8663 13.5485 29.2759 14.316C32.0617 14.7111 34.6707 16.1416 36.5894 18.4292C37.0306 18.9555 37.3308 19.3785 37.6731 19.9703C39.1652 22.5495 39.6037 25.4679 39.0011 28.1876C37.7821 33.6874 32.7432 37.1606 27.2241 37.3791C23.3407 37.533 19.7278 36.3345 15.9478 37.1962C14.5963 37.5039 12.8396 37.8722 11.9007 36.5032C10.8685 34.9979 11.8541 33.7512 12.6921 32.4911ZM14.4075 33.6068C14.1382 34.0115 13.7259 34.5555 13.5907 34.9845C13.5003 35.2713 13.6878 35.4865 13.9838 35.4862C14.4466 35.4856 15.0236 35.3173 15.4887 35.2119C19.714 34.2488 23.0562 35.5329 27.1925 35.3268C31.7721 35.0984 35.9664 32.367 36.9876 27.7573C37.4833 25.5211 37.1188 23.1151 35.8852 20.9823C35.6183 20.5207 35.3545 20.1383 35.0108 19.7281C33.4252 17.8381 31.2764 16.657 28.9859 16.3322C24.3813 15.6791 20.3241 18.49 18.4628 22.5308C16.7149 26.3253 16.8619 29.9172 14.4075 33.6068Z" fill="#00A0E3"/>
</svg>
